<svg width="672" height="672" viewBox="0 0 672 672" fill="none" xmlns="http://www.w3.org/2000/svg">
<path fill-rule="evenodd" clip-rule="evenodd" d="M336 287C308.938 287 287 308.938 287 336C287 363.062 308.938 385 336 385C363.062 385 385 363.062 385 336C385 308.938 363.062 287 336 287ZM286 336C286 308.386 308.386 286 336 286C363.614 286 386 308.386 386 336C386 363.614 363.614 386 336 386C308.386 386 286 363.614 286 336Z" fill="#8DFD1B"/>
<path fill-rule="evenodd" clip-rule="evenodd" d="M336.5 256C292.593 256 257 291.593 257 335.5C257 379.407 292.593 415 336.5 415C380.407 415 416 379.407 416 335.5C416 291.593 380.407 256 336.5 256ZM256 335.5C256 291.041 292.041 255 336.5 255C380.959 255 417 291.041 417 335.5C417 379.959 380.959 416 336.5 416C292.041 416 256 379.959 256 335.5Z" fill="#8DFD1B"/>
<path fill-rule="evenodd" clip-rule="evenodd" d="M335.605 207C264.578 207 207 264.578 207 335.605C207 406.632 264.578 464.21 335.605 464.21C406.632 464.21 464.21 406.632 464.21 335.605C464.21 264.578 406.632 207 335.605 207ZM206 335.605C206 264.026 264.026 206 335.605 206C407.184 206 465.21 264.026 465.21 335.605C465.21 407.184 407.184 465.21 335.605 465.21C264.026 465.21 206 407.184 206 335.605Z" fill="#8DFD1B" fill-opacity="0.75"/>
<path fill-rule="evenodd" clip-rule="evenodd" d="M335.664 128C220.974 128 128 220.974 128 335.664C128 450.354 220.974 543.328 335.664 543.328C450.354 543.328 543.328 450.354 543.328 335.664C543.328 220.974 450.354 128 335.664 128ZM127 335.664C127 220.422 220.422 127 335.664 127C450.906 127 544.328 220.422 544.328 335.664C544.328 450.906 450.906 544.328 335.664 544.328C220.422 544.328 127 450.906 127 335.664Z" fill="#8DFD1B" fill-opacity="0.5"/>
<path fill-rule="evenodd" clip-rule="evenodd" d="M335.951 1C150.963 1 1 150.963 1 335.951C1 520.939 150.963 670.902 335.951 670.902C520.939 670.902 670.902 520.939 670.902 335.951C670.902 150.963 520.939 1 335.951 1ZM0 335.951C0 150.41 150.41 0 335.951 0C521.492 0 671.902 150.41 671.902 335.951C671.902 521.492 521.492 671.902 335.951 671.902C150.41 671.902 0 521.492 0 335.951Z" fill="#8DFD1B" fill-opacity="0.25"/>
</svg>
